name C:/MyDriveSym/Projects/mobilecap/Data\Session20210910_0002\mocap\ForceDataProcessed\walking4_forces.mot
datacolumns 19
datarows 27
range 0.00000000 0.01300000
endheader 
time	R_ground_force_vx	R_ground_force_vy	R_ground_force_vz	R_ground_force_px	R_ground_force_py	R_ground_force_pz	R_ground_torque_x	R_ground_torque_y	R_ground_torque_z	L_ground_force_vx	L_ground_force_vy	L_ground_force_vz	L_ground_force_px	L_ground_force_py	L_ground_force_pz	L_ground_torque_x	L_ground_torque_y	L_ground_torque_z	
          0.00000000	        -42.81003900	        383.16791900	         20.49204200	          0.07913900	          0.00600000	         -0.21978100	          0.00000000	         -0.63946000	          0.00000000	          0.00000000	          0.00000000	          0.00000000	          0.65880800	          0.00000000	         -0.30847400	          0.00000000	          0.00000000	          0.00000000	
          0.00050000	        -43.47225200	        385.09424000	         20.36101400	          0.07913900	          0.00600000	         -0.21978100	          0.00000000	         -0.64724700	          0.00000000	          0.00000000	          0.00000000	          0.00000000	          0.65880800	          0.00000000	         -0.30847400	          0.00000000	          0.00000000	          0.00000000	
          0.00100000	        -44.13754300	        387.03357300	         20.22775000	          0.07913900	          0.00600000	         -0.21978100	          0.00000000	         -0.65509800	          0.00000000	          0.00000000	          0.00000000	          0.00000000	          0.65880800	          0.00000000	         -0.30847400	          0.00000000	          0.00000000	          0.00000000	
          0.00150000	        -44.80586400	        388.98584600	         20.09223100	          0.07913900	          0.00600000	         -0.21978100	          0.00000000	         -0.66301300	          0.00000000	          0.00000000	          0.00000000	          0.00000000	          0.65880800	          0.00000000	         -0.30847400	          0.00000000	          0.00000000	          0.00000000	
          0.00200000	        -45.47716400	        390.95098400	         19.95443900	          0.07947700	          0.00600000	         -0.21971100	          0.00000000	         -0.67099000	          0.00000000	          0.00000000	          0.00000000	          0.00000000	          0.65880800	          0.00000000	         -0.30847400	          0.00000000	          0.00000000	          0.00000000	
          0.00250000	        -46.15139200	        392.92890900	         19.81435700	          0.07981600	          0.00600000	         -0.21964100	          0.00000000	         -0.67903000	          0.00000000	          0.00000000	          0.00000000	          0.00000000	          0.65880800	          0.00000000	         -0.30847400	          0.00000000	          0.00000000	          0.00000000	
          0.00300000	        -46.82849600	        394.91954100	         19.67196700	          0.08015500	          0.00600000	         -0.21957100	          0.00000000	         -0.68713000	          0.00000000	          0.00000000	          0.00000000	          0.00000000	          0.65880800	          0.00000000	         -0.30847400	          0.00000000	          0.00000000	          0.00000000	
          0.00350000	        -47.50842300	        396.92279900	         19.52725300	          0.08049400	          0.00600000	         -0.21950100	          0.00000000	         -0.69529200	          0.00000000	          0.00000000	          0.00000000	          0.00000000	          0.65880800	          0.00000000	         -0.30847400	          0.00000000	          0.00000000	          0.00000000	
          0.00400000	        -48.19112000	        398.93859600	         19.38019700	          0.08083300	          0.00600000	         -0.21943000	          0.00000000	         -0.70351300	          0.00000000	          0.00000000	          0.00000000	          0.00000000	          0.65880800	          0.00000000	         -0.30847400	          0.00000000	          0.00000000	          0.00000000	
          0.00450000	        -48.87653200	        400.96684800	         19.23078300	          0.08117200	          0.00600000	         -0.21935900	          0.00000000	         -0.71179200	          0.00000000	          0.00000000	          0.00000000	          0.00000000	          0.65880800	          0.00000000	         -0.30847400	          0.00000000	          0.00000000	          0.00000000	
          0.00500000	        -49.56460500	        403.00746400	         19.07899500	          0.08151200	          0.00600000	         -0.21928700	          0.00000000	         -0.72013000	          0.00000000	          0.00000000	          0.00000000	          0.00000000	          0.65880800	          0.00000000	         -0.30847400	          0.00000000	          0.00000000	          0.00000000	
          0.00550000	        -50.25528300	        405.06035400	         18.92481700	          0.08185100	          0.00600000	         -0.21921500	          0.00000000	         -0.72852400	          0.00000000	          0.00000000	          0.00000000	          0.00000000	          0.65880800	          0.00000000	         -0.30847400	          0.00000000	          0.00000000	          0.00000000	
          0.00600000	        -50.94850800	        407.12542600	         18.76823500	          0.08219000	          0.00600000	         -0.21914300	          0.00000000	         -0.73697500	          0.00000000	          0.00000000	          0.00000000	          0.00000000	          0.65880800	          0.00000000	         -0.30847400	          0.00000000	          0.00000000	          0.00000000	
          0.00650000	        -51.64422600	        409.20258400	         18.60923400	          0.08252900	          0.00600000	         -0.21907100	          0.00000000	         -0.74548100	          0.00000000	          0.00000000	          0.00000000	          0.00000000	          0.65880800	          0.00000000	         -0.30847400	          0.00000000	          0.00000000	          0.00000000	
          0.00700000	        -52.34237700	        411.29173100	         18.44779900	          0.08286800	          0.00600000	         -0.21899800	          0.00000000	         -0.75404000	          0.00000000	          0.00000000	          0.00000000	          0.00000000	          0.65880800	          0.00000000	         -0.30847400	          0.00000000	          0.00000000	          0.00000000	
          0.00750000	        -53.04290400	        413.39277000	         18.28391600	          0.08320600	          0.00600000	         -0.21892500	          0.00000000	         -0.76265300	          0.00000000	          0.00000000	          0.00000000	          0.00000000	          0.65880800	          0.00000000	         -0.30847400	          0.00000000	          0.00000000	          0.00000000	
          0.00800000	        -53.74574900	        415.50559900	         18.11757200	          0.08354500	          0.00600000	         -0.21885200	          0.00000000	         -0.77131800	          0.00000000	          0.00000000	          0.00000000	          0.00000000	          0.65880800	          0.00000000	         -0.30847400	          0.00000000	          0.00000000	          0.00000000	
          0.00850000	        -54.45085300	        417.63011600	         17.94875500	          0.08388400	          0.00600000	         -0.21877800	          0.00000000	         -0.78003400	          0.00000000	          0.00000000	          0.00000000	          0.00000000	          0.65880800	          0.00000000	         -0.30847400	          0.00000000	          0.00000000	          0.00000000	
          0.00900000	        -55.15815500	        419.76621700	         17.77745100	          0.08422200	          0.00600000	         -0.21870500	          0.00000000	         -0.78879900	          0.00000000	          0.00000000	          0.00000000	          0.00000000	          0.65880800	          0.00000000	         -0.30847400	          0.00000000	          0.00000000	          0.00000000	
          0.00950000	        -55.86759800	        421.91379700	         17.60364900	          0.08456000	          0.00600000	         -0.21863100	          0.00000000	         -0.79761400	          0.00000000	          0.00000000	          0.00000000	          0.00000000	          0.65880800	          0.00000000	         -0.30847400	          0.00000000	          0.00000000	          0.00000000	
          0.01000000	        -56.57911900	        424.07274700	         17.42733800	          0.08489800	          0.00600000	         -0.21855600	          0.00000000	         -0.80647600	          0.00000000	          0.00000000	          0.00000000	          0.00000000	          0.65880800	          0.00000000	         -0.30847400	          0.00000000	          0.00000000	          0.00000000	
          0.01050000	        -57.29266000	        426.24296100	         17.24850700	          0.08523600	          0.00600000	         -0.21848200	          0.00000000	         -0.81538400	          0.00000000	          0.00000000	          0.00000000	          0.00000000	          0.65880800	          0.00000000	         -0.30847400	          0.00000000	          0.00000000	          0.00000000	
          0.01100000	        -58.00816000	        428.42432600	         17.06714600	          0.08557300	          0.00600000	         -0.21840700	          0.00000000	         -0.82433800	          0.00000000	          0.00000000	          0.00000000	          0.00000000	          0.65880800	          0.00000000	         -0.30847400	          0.00000000	          0.00000000	          0.00000000	
          0.01150000	        -58.72555700	        430.61673000	         16.88324500	          0.08591100	          0.00600000	         -0.21833200	          0.00000000	         -0.83333500	          0.00000000	          0.00000000	          0.00000000	          0.00000000	          0.65880800	          0.00000000	         -0.30847400	          0.00000000	          0.00000000	          0.00000000	
          0.01200000	        -59.44479000	        432.82006100	         16.69679600	          0.08624800	          0.00600000	         -0.21825600	          0.00000000	         -0.84237600	          0.00000000	          0.00000000	          0.00000000	          0.00000000	          0.65880800	          0.00000000	         -0.30847400	          0.00000000	          0.00000000	          0.00000000	
          0.01250000	        -60.16579900	        435.03420400	         16.50779100	          0.08658400	          0.00600000	         -0.21818100	          0.00000000	         -0.85145800	          0.00000000	          0.00000000	          0.00000000	          0.00000000	          0.65880800	          0.00000000	         -0.30847400	          0.00000000	          0.00000000	          0.00000000	
          0.01300000	        -60.88852100	        437.25904100	         16.31622100	          0.08692100	          0.00600000	         -0.21810500	          0.00000000	         -0.86058000	          0.00000000	          0.00000000	          0.00000000	          0.00000000	          0.65880800	          0.00000000	         -0.30847400	          0.00000000	          0.00000000	          0.00000000	
